<?xml version="1.0" encoding="UTF-8" standalone="no"?>
<!-- Created with Inkscape (http://www.inkscape.org/) -->

<svg
   xmlns:dc="http://purl.org/dc/elements/1.1/"
   xmlns:cc="http://creativecommons.org/ns#"
   xmlns:rdf="http://www.w3.org/1999/02/22-rdf-syntax-ns#"
   xmlns:svg="http://www.w3.org/2000/svg"
   xmlns="http://www.w3.org/2000/svg"
   xmlns:sodipodi="http://sodipodi.sourceforge.net/DTD/sodipodi-0.dtd"
   xmlns:inkscape="http://www.inkscape.org/namespaces/inkscape"
   width="885.37909"
   height="885.09106"
   viewBox="0 0 830.04288 829.77287"
   id="svg4289"
   version="1.1"
   inkscape:version="0.92.1 r15371"
   sodipodi:docname="app-parity-brandmark-4.svg">
  <defs
     id="defs4291">
    <clipPath
       clipPathUnits="userSpaceOnUse"
       id="clipPath3617">
      <path
         d="m 823,258 h 222 v 86 H 823 Z"
         id="path3619"
         inkscape:connector-curvature="0" />
    </clipPath>
    <clipPath
       clipPathUnits="userSpaceOnUse"
       id="clipPath3549">
      <path
         d="m 551.0085,479.9361 h 325.5758 v 79.24058 H 551.0085 Z"
         id="path3551"
         inkscape:connector-curvature="0" />
    </clipPath>
    <clipPath
       clipPathUnits="userSpaceOnUse"
       id="clipPath3481">
      <path
         d="m 551.0085,627.9283 h 325.5758 v 79.24298 H 551.0085 Z"
         id="path3483"
         inkscape:connector-curvature="0" />
    </clipPath>
    <clipPath
       clipPathUnits="userSpaceOnUse"
       id="clipPath3393">
      <path
         d="m 381,263 h 668 V 937 H 381 Z"
         id="path3395"
         inkscape:connector-curvature="0" />
    </clipPath>
    <clipPath
       clipPathUnits="userSpaceOnUse"
       id="clipPath3381">
      <path
         d="m 381,263 h 668 V 937 H 381 Z"
         id="path3383"
         inkscape:connector-curvature="0" />
    </clipPath>
  </defs>
  <sodipodi:namedview
     id="base"
     pagecolor="#ffffff"
     bordercolor="#666666"
     borderopacity="1.0"
     inkscape:pageopacity="0.0"
     inkscape:pageshadow="2"
     inkscape:zoom="0.35"
     inkscape:cx="-111.87851"
     inkscape:cy="417.54972"
     inkscape:document-units="px"
     inkscape:current-layer="layer1"
     showgrid="false"
     fit-margin-top="0"
     fit-margin-left="0"
     fit-margin-right="0"
     fit-margin-bottom="0"
     inkscape:window-width="1364"
     inkscape:window-height="743"
     inkscape:window-x="0"
     inkscape:window-y="23"
     inkscape:window-maximized="1"
     units="px"
     inkscape:snap-nodes="false" />
  <metadata
     id="metadata4294">
    <rdf:RDF>
      <cc:Work
         rdf:about="">
        <dc:format>image/svg+xml</dc:format>
        <dc:type
           rdf:resource="http://purl.org/dc/dcmitype/StillImage" />
        <dc:title />
      </cc:Work>
    </rdf:RDF>
  </metadata>
  <g
     inkscape:label="Layer 1"
     inkscape:groupmode="layer"
     id="layer1"
     transform="translate(60.73571,-113.7015)">
    <path
       style="opacity:1;fill:#000000;fill-opacity:1;stroke:#ffffff;stroke-width:2.3541553;stroke-miterlimit:4;stroke-dasharray:none;stroke-dashoffset:0;stroke-opacity:1"
       d="M 543.67773 -2.4726562 L -1.9414062 338.46875 L 55.273438 430.0293 L 227.06836 323.55859 L 227.06836 286.18555 L 287.37305 286.18555 L 602.15039 91.101562 L 543.67773 -2.4726562 z M 615.01758 111.69141 L 333.46484 286.18555 L 541.34375 286.18555 L 673.04883 204.56055 L 615.01758 111.69141 z M 685.91406 225.15234 L 587.43359 286.18555 L 657.2168 286.18555 L 657.2168 372.83984 L 744.42773 318.79102 L 685.91406 225.15234 z M 757.29297 339.38086 L 525.04883 483.31445 L 657.64648 483.31445 L 657.64648 523.69531 L 812.49805 427.72656 L 757.29297 339.38086 z M 227.06836 352.125 L 68.140625 450.62109 L 126.17188 543.49023 L 377.94727 387.45117 L 227.06836 387.45117 L 227.06836 352.125 z M 424.03516 387.45117 L 269.35352 483.31445 L 478.96289 483.31445 L 633.64258 387.45117 L 424.03516 387.45117 z M 825.36328 448.31641 L 657.64648 552.25977 L 657.64648 584.58203 L 605.49219 584.58203 L 278.48633 787.24414 L 339 884.08594 L 884.61914 543.14648 L 825.36328 448.31641 z M 227.49609 509.25586 L 139.03711 564.07812 L 197.55078 657.7207 L 315.5625 584.58203 L 227.49609 584.58203 L 227.49609 509.25586 z M 361.64844 584.58203 L 210.41602 678.30859 L 265.62109 766.6543 L 559.4043 584.58203 L 361.64844 584.58203 z "
       id="rect95169"
       transform="matrix(0.93749999,0,0,0.93749999,-60.73571,113.7015)" />
  </g>
</svg>
