<?xml version="1.0" encoding="UTF-8" standalone="no"?>
<!-- Created with Inkscape (http://www.inkscape.org/) -->

<svg
   xmlns:dc="http://purl.org/dc/elements/1.1/"
   xmlns:cc="http://creativecommons.org/ns#"
   xmlns:rdf="http://www.w3.org/1999/02/22-rdf-syntax-ns#"
   xmlns:svg="http://www.w3.org/2000/svg"
   xmlns="http://www.w3.org/2000/svg"
   xmlns:sodipodi="http://sodipodi.sourceforge.net/DTD/sodipodi-0.dtd"
   xmlns:inkscape="http://www.inkscape.org/namespaces/inkscape"
   width="885.37909"
   height="885.09106"
   viewBox="0 0 830.04288 829.77287"
   id="svg4289"
   version="1.1"
   inkscape:version="0.92.1 r15371"
   sodipodi:docname="app-parity-brandmark-3.svg">
  <defs
     id="defs4291">
    <clipPath
       clipPathUnits="userSpaceOnUse"
       id="clipPath3617">
      <path
         d="m 823,258 h 222 v 86 H 823 Z"
         id="path3619"
         inkscape:connector-curvature="0" />
    </clipPath>
    <clipPath
       clipPathUnits="userSpaceOnUse"
       id="clipPath3549">
      <path
         d="m 551.0085,479.9361 h 325.5758 v 79.24058 H 551.0085 Z"
         id="path3551"
         inkscape:connector-curvature="0" />
    </clipPath>
    <clipPath
       clipPathUnits="userSpaceOnUse"
       id="clipPath3481">
      <path
         d="m 551.0085,627.9283 h 325.5758 v 79.24298 H 551.0085 Z"
         id="path3483"
         inkscape:connector-curvature="0" />
    </clipPath>
    <clipPath
       clipPathUnits="userSpaceOnUse"
       id="clipPath3393">
      <path
         d="m 381,263 h 668 V 937 H 381 Z"
         id="path3395"
         inkscape:connector-curvature="0" />
    </clipPath>
    <clipPath
       clipPathUnits="userSpaceOnUse"
       id="clipPath3381">
      <path
         d="m 381,263 h 668 V 937 H 381 Z"
         id="path3383"
         inkscape:connector-curvature="0" />
    </clipPath>
  </defs>
  <sodipodi:namedview
     id="base"
     pagecolor="#ffffff"
     bordercolor="#666666"
     borderopacity="1.0"
     inkscape:pageopacity="0.0"
     inkscape:pageshadow="2"
     inkscape:zoom="0.35"
     inkscape:cx="488.17854"
     inkscape:cy="442.21187"
     inkscape:document-units="px"
     inkscape:current-layer="layer1"
     showgrid="false"
     fit-margin-top="0"
     fit-margin-left="0"
     fit-margin-right="0"
     fit-margin-bottom="0"
     inkscape:window-width="1364"
     inkscape:window-height="743"
     inkscape:window-x="0"
     inkscape:window-y="23"
     inkscape:window-maximized="1"
     units="px" />
  <metadata
     id="metadata4294">
    <rdf:RDF>
      <cc:Work
         rdf:about="">
        <dc:format>image/svg+xml</dc:format>
        <dc:type
           rdf:resource="http://purl.org/dc/dcmitype/StillImage" />
        <dc:title></dc:title>
      </cc:Work>
    </rdf:RDF>
  </metadata>
  <g
     inkscape:label="Layer 1"
     inkscape:groupmode="layer"
     id="layer1"
     transform="translate(60.73571,-113.7015)">
    <path
       style="opacity:1;fill:#000000;fill-opacity:1;stroke:#ffffff;stroke-width:2.3541553;stroke-miterlimit:4;stroke-dasharray:none;stroke-dashoffset:0;stroke-opacity:1"
       d="M 543.67773 -2.4726562 L -1.9414062 338.46875 L 69.804688 453.28516 L 221.12109 359.50586 L 221.12109 286.11133 L 339.54883 286.11133 L 616.68164 114.35742 L 543.67773 -2.4726562 z M 635.75977 144.88867 L 407.88867 286.11133 L 663.06055 286.11133 L 706.99219 258.88477 L 635.75977 144.88867 z M 726.06836 289.41211 L 668.34766 325.18555 L 668.34766 391.39844 L 561.50977 391.39844 L 413.31641 483.24219 L 655.07031 483.24219 L 793.55664 397.41602 L 726.06836 289.41211 z M 238.00195 391.39844 L 88.882812 483.81445 L 160.11523 597.81055 L 221.55078 559.73633 L 221.55078 483.24219 L 344.97852 483.24219 L 493.17383 391.39844 L 238.00195 391.39844 z M 812.63477 427.94531 L 668.77734 517.10156 L 668.77734 588.52734 L 553.52734 588.52734 L 265.75586 766.87305 L 339 884.08594 L 884.61914 543.14648 L 812.63477 427.94531 z M 243.43555 588.52734 L 179.19336 628.3418 L 246.67969 736.3418 L 485.1875 588.52734 L 243.43555 588.52734 z "
       transform="matrix(0.93749999,0,0,0.93749999,-60.73571,113.7015)"
       id="rect95169" />
  </g>
</svg>
